<?xml version="1.0" encoding="utf-8"?>
<!-- Generator: Adobe Illustrator 19.0.0, SVG Export Plug-In . SVG Version: 6.00 Build 0)  -->
<svg version="1.1" id="ad_icon" xmlns="http://www.w3.org/2000/svg" xmlns:xlink="http://www.w3.org/1999/xlink" x="0px"
	 y="0px" viewBox="0 0 143.6 280.4" style="enable-background:new 0 0 143.6 280.4;" xml:space="preserve">
<style type="text/css">
	.st0{fill:#E6E6E6;}
	.st1{fill:#FF0000;}
	.st2{fill:#FFFFFF;}
	.st3{font-family:'NotoSansCJKjp-Bold-83pv-RKSJ-H';}
	.st4{font-size:29.367px;}
	.st5{fill:#575959;}
	.st6{fill:#383635;}
</style>
<path id="hand" class="st0" d="M124.2,219l-44.5-52.1L9.1,118.7c-3.9-2.6-9.1,0.1-9.1,4.8v84.2c0,0-0.7,19.1,17.2,31.3v41.4h82
	v-31.6C105.6,242.8,115.5,232.4,124.2,219z"/>
<g id="sp">
	<path id="sp_x5F_body" d="M109.6,1h-3.4V0h-20v1H32.5c-8.7,0-16.3,6.8-16.3,15.5v197c0,8.7,7.6,15.6,16.3,15.6h77.1
		c8.7,0,15.6-6.8,15.6-15.6v-197C125.2,7.8,118.3,1,109.6,1z"/>
	<rect id="sp_x5F_display" x="18.8" y="21.8" class="st1" width="104.2" height="185.1"/>
	<text id="sp_x5F_text" transform="matrix(1 0 0 1 52.1705 122.708)" class="st2 st3 st4">CP</text>
	<g id="sp_x5F_button">
		<circle id="XMLID_1_" class="st5" cx="70.9" cy="217.4" r="7.6"/>
		<circle id="XMLID_2_" cx="70.9" cy="217.2" r="7.4"/>
	</g>
	<path id="sp_x5F_mic" class="st6" d="M78.7,16.6H63.2c-0.7,0-1.2-0.5-1.2-1.2v0c0-0.7,0.5-1.2,1.2-1.2h15.5c0.7,0,1.2,0.5,1.2,1.2
		v0C79.9,16,79.3,16.6,78.7,16.6z"/>
</g>
<path id="middle_x5F_finger" class="st0" d="M115.3,123.7l7.4-7.4c4.8-4.8,12.5-4.8,17.3,0l0,0c4.8,4.8,4.8,12.5,0,17.3l-7.4,7.4
	c-4.8,4.8-12.5,4.8-17.3,0l0,0C110.5,136.2,110.5,128.5,115.3,123.7z"/>
<path id="ring_x5F_finger" class="st0" d="M115.3,159.1l7.4-7.4c4.8-4.8,12.5-4.8,17.3,0l0,0c4.8,4.8,4.8,12.5,0,17.3l-7.4,7.4
	c-4.8,4.8-12.5,4.8-17.3,0l0,0C110.5,171.6,110.5,163.9,115.3,159.1z"/>
<path id="pinkey_x5F_finger" class="st0" d="M115.3,194l7.4-7.4c4.8-4.8,12.5-4.8,17.3,0l0,0c4.8,4.8,4.8,12.5,0,17.3l-7.4,7.4
	c-4.8,4.8-12.5,4.8-17.3,0l0,0C110.5,206.5,110.5,198.8,115.3,194z"/>
</svg>
